<svg width="203" height="30" viewBox="0 0 203 30" fill="none" xmlns="http://www.w3.org/2000/svg">
<path d="M0.56 25.1787V4.95467L5.38133 0.13333H19.376L24.112 4.86933V8.79467H19.1627V6.61866L16.9013 4.4H7.94133L5.50933 6.78933V23.344L7.94133 25.7333H16.9013L19.1627 23.5147V21.3387H24.112V25.264L19.376 30H5.38133L0.56 25.1787ZM51.3103 20.3573V30H46.361V21.552L43.289 18.1813H33.561V30H28.6117V0.13333H46.7877L51.1397 4.528V13.7013L48.025 16.816L51.3103 20.3573ZM33.561 14.0853H44.569L46.2757 12.3787V6.02133L44.569 4.31466H33.561V14.0853ZM57.07 0.13333H77.8913V4.35733H62.0193V12.8907H76.654V17.072H62.0193V25.776H77.8913V30H57.07V0.13333ZM90.8473 0.13333H95.5407L106.335 30H101.301L98.7407 22.9173H87.6047L85.0447 30H80.01L90.8473 0.13333ZM97.5887 18.7787L93.194 6.14933H93.1087L88.7993 18.7787H97.5887ZM108.903 25.008V0.13333H113.853V23.344L116.285 25.7333H125.074L127.506 23.344V0.13333H132.455V25.008L127.463 30H113.895L108.903 25.008ZM138.445 0.13333H142.968L157.048 21.8507H157.133V0.13333H161.869V30H157.346L143.266 8.32533H143.181V30H138.445V0.13333ZM168.075 0.13333H173.024V30H168.075V0.13333ZM176.848 0.13333H181.968L189.862 24.112H189.947L197.84 0.13333H202.96L192.379 30H187.43L176.848 0.13333Z" fill="white"/>
</svg>
