<svg width="39" height="38" viewBox="0 0 39 38" fill="none" xmlns="http://www.w3.org/2000/svg">
<path d="M8.60577 11.1459C10.4771 11.1459 11.9941 9.62884 11.9941 7.7575C11.9941 5.88616 10.4771 4.36914 8.60577 4.36914C6.73443 4.36914 5.21741 5.88616 5.21741 7.7575C5.21741 9.62884 6.73443 11.1459 8.60577 11.1459Z" fill="white"/>
<path d="M15.1935 13.7126V32.5112H21.0302V23.2149C21.0302 20.7619 21.4917 18.3863 24.5331 18.3863C27.5328 18.3863 27.57 21.1909 27.57 23.3698V32.5128H33.4098V22.2037C33.4098 17.1397 32.3195 13.248 26.4008 13.248C23.5591 13.248 21.6543 14.8075 20.8753 16.2833H20.7963V13.7126H15.1935ZM5.68188 13.7126H11.5279V32.5112H5.68188V13.7126Z" fill="white"/>
</svg>
