<svg width="38" height="38" viewBox="0 0 38 38" fill="none" xmlns="http://www.w3.org/2000/svg">
<path d="M30.9722 6.19434H6.19439C4.48627 6.19434 3.09717 7.58344 3.09717 9.29156V27.8749C3.09717 29.583 4.48627 30.9721 6.19439 30.9721H30.9722C32.6803 30.9721 34.0694 29.583 34.0694 27.8749V9.29156C34.0694 7.58344 32.6803 6.19434 30.9722 6.19434ZM30.9722 9.29156V10.0829L18.5833 19.7199L6.19439 10.0844V9.29156H30.9722ZM6.19439 27.8749V14.0055L17.6324 22.9023C17.9036 23.1153 18.2385 23.2311 18.5833 23.2311C18.9281 23.2311 19.2629 23.1153 19.5341 22.9023L30.9722 14.0055L30.9753 27.8749H6.19439Z" fill="white"/>
</svg>
