<svg width="39" height="38" viewBox="0 0 39 38" fill="none" xmlns="http://www.w3.org/2000/svg">
<path d="M19.5263 11.4248C17.6271 11.4248 15.8057 12.1792 14.4628 13.5221C13.1199 14.8651 12.3655 16.6864 12.3655 18.5856C12.3655 20.4847 13.1199 22.3061 14.4628 23.649C15.8057 24.9919 17.6271 25.7464 19.5263 25.7464C21.4254 25.7464 23.2468 24.9919 24.5897 23.649C25.9326 22.3061 26.687 20.4847 26.687 18.5856C26.687 16.6864 25.9326 14.8651 24.5897 13.5221C23.2468 12.1792 21.4254 11.4248 19.5263 11.4248ZM19.5263 23.2361C18.2925 23.2361 17.1092 22.7459 16.2368 21.8735C15.3644 21.0011 14.8742 19.8178 14.8742 18.584C14.8742 17.3502 15.3644 16.167 16.2368 15.2946C17.1092 14.4221 18.2925 13.932 19.5263 13.932C20.76 13.932 21.9433 14.4221 22.8157 15.2946C23.6882 16.167 24.1783 17.3502 24.1783 18.584C24.1783 19.8178 23.6882 21.0011 22.8157 21.8735C21.9433 22.7459 20.76 23.2361 19.5263 23.2361Z" fill="white"/>
<path d="M26.9704 12.83C27.8924 12.83 28.6398 12.0826 28.6398 11.1606C28.6398 10.2386 27.8924 9.49121 26.9704 9.49121C26.0484 9.49121 25.301 10.2386 25.301 11.1606C25.301 12.0826 26.0484 12.83 26.9704 12.83Z" fill="white"/>
<path d="M32.742 9.46428C32.3835 8.53849 31.8356 7.69776 31.1335 6.99589C30.4313 6.29402 29.5904 5.74649 28.6645 5.38834C27.581 4.98161 26.4363 4.76168 25.2792 4.73792C23.7879 4.67288 23.3156 4.6543 19.5339 4.6543C15.7522 4.6543 15.2674 4.6543 13.7885 4.73792C12.6323 4.76046 11.4884 4.98044 10.4063 5.38834C9.48018 5.74607 8.63901 6.29346 7.93683 6.99538C7.23464 7.6973 6.68693 8.53825 6.32885 9.46428C5.92204 10.5477 5.70262 11.6925 5.67998 12.8495C5.61339 14.3393 5.59326 14.8116 5.59326 18.5949C5.59326 22.3766 5.59326 22.8582 5.67998 24.3402C5.70321 25.4986 5.92157 26.6415 6.32885 27.7271C6.68794 28.6528 7.23618 29.4934 7.93853 30.1952C8.64089 30.897 9.48192 31.4446 10.4079 31.803C11.4879 32.2261 12.6323 32.4617 13.7916 32.4999C15.2829 32.5649 15.7552 32.585 19.537 32.585C23.3187 32.585 23.8034 32.585 25.2823 32.4999C26.4393 32.4763 27.5839 32.257 28.6676 31.851C29.5933 31.492 30.434 30.944 31.136 30.242C31.8381 29.5399 32.3861 28.6992 32.7451 27.7735C33.1523 26.6895 33.3707 25.5466 33.3939 24.3882C33.4605 22.8985 33.4806 22.4262 33.4806 18.6429C33.4806 14.8596 33.4807 14.3796 33.3939 12.8976C33.3759 11.7241 33.1553 10.5626 32.742 9.46428ZM30.8558 24.2256C30.8458 25.1181 30.6829 26.0023 30.3741 26.8397C30.1416 27.4419 29.7855 27.9888 29.3289 28.4451C28.8723 28.9015 28.3253 29.2572 27.7229 29.4894C26.8948 29.7967 26.02 29.9596 25.1367 29.971C23.6656 30.0391 23.2505 30.0562 19.4781 30.0562C15.7026 30.0562 15.317 30.0562 13.8179 29.971C12.9351 29.9602 12.0608 29.7973 11.2333 29.4894C10.6289 29.2586 10.0796 28.9035 9.62103 28.4471C9.16247 27.9907 8.80483 27.4431 8.57124 26.8397C8.26686 26.0113 8.10404 25.1375 8.08962 24.2551C8.02303 22.7839 8.00755 22.3689 8.00755 18.5964C8.00755 14.8225 8.00755 14.4369 8.08962 12.9363C8.09963 12.0443 8.26253 11.1607 8.57124 10.3238C9.04357 9.10191 10.0114 8.14022 11.2333 7.67254C12.0612 7.36613 12.9353 7.20325 13.8179 7.19092C15.2907 7.12433 15.7041 7.10575 19.4781 7.10575C23.2521 7.10575 23.6392 7.10575 25.1367 7.19092C26.0201 7.20155 26.895 7.36448 27.7229 7.67254C28.3252 7.90525 28.8722 8.26133 29.3288 8.7179C29.7854 9.17447 30.1414 9.72146 30.3741 10.3238C30.6785 11.1522 30.8413 12.0259 30.8558 12.9084C30.9223 14.3811 30.9394 14.7946 30.9394 18.5686C30.9394 22.341 30.9394 22.7467 30.8728 24.2272H30.8558V24.2256Z" fill="white"/>
</svg>
