<svg width="38" height="38" viewBox="0 0 38 38" fill="none" xmlns="http://www.w3.org/2000/svg">
<path fill-rule="evenodd" clip-rule="evenodd" d="M19.457 3.09766C10.9257 3.09766 4.01111 10.0122 4.01111 18.5435C4.01111 25.3667 8.43549 31.1569 14.5742 33.2011C15.3469 33.3405 15.6257 32.8651 15.6257 32.4562C15.6257 32.0892 15.6133 31.1167 15.6087 29.8298C11.3113 30.762 10.4038 27.7577 10.4038 27.7577C9.7038 25.9737 8.68946 25.4983 8.68946 25.4983C7.28797 24.5397 8.79632 24.5614 8.79632 24.5614C10.348 24.6698 11.161 26.1534 11.161 26.1534C12.5393 28.5135 14.7786 27.8321 15.6551 27.4372C15.796 26.4383 16.1987 25.7569 16.6385 25.3713C13.2099 24.9826 9.60469 23.657 9.60469 17.7367C9.60469 16.0533 10.2071 14.672 11.1905 13.5941C11.0341 13.2023 10.4998 11.6305 11.3438 9.50581C11.3438 9.50581 12.64 9.08923 15.5901 11.0869C16.85 10.7442 18.1497 10.5692 19.4554 10.5666C20.7612 10.5687 22.0609 10.7437 23.3207 11.0869C26.2724 9.08768 27.567 9.50581 27.567 9.50581C28.411 11.6305 27.8814 13.2023 27.7203 13.5941C28.7115 14.672 29.3061 16.0518 29.3061 17.7367C29.3061 23.6725 25.6979 24.9764 22.2568 25.3589C22.8066 25.8359 23.3022 26.7775 23.3022 28.2177C23.3022 30.2835 23.2836 31.9498 23.2836 32.4562C23.2836 32.8697 23.5592 33.3498 24.3475 33.198C30.4831 31.1507 34.9028 25.3651 34.9028 18.5435C34.9028 10.0122 27.9883 3.09766 19.457 3.09766Z" fill="white"/>
</svg>
