<svg width="806" height="139" viewBox="0 0 806 139" fill="none" xmlns="http://www.w3.org/2000/svg">
<path d="M3.2034 31.254H15.6967L25.734 87.5271H26.0543L41.9645 31.254H51.8951L67.2714 87.5271H67.6985L77.6291 31.254H90.1223L74.746 106H62.7866L47.09 49.9405H46.7696L30.5391 106H18.5797L3.2034 31.254ZM94.4044 95.4288V63.5016L104.976 52.8236H133.913L144.698 63.5016V83.3626H106.471V91.905L110.528 95.9627H128.788L132.632 92.0118V88.8084H144.591V95.6423L134.233 106H104.869L94.4044 95.4288ZM132.632 74.4999V67.1321L128.467 62.8609H110.635L106.471 67.1321V74.4999H132.632ZM158.648 45.5625H156.619L152.561 41.5049V35.3116L156.619 31.254H163.559L167.51 35.4184V45.5625L161.744 59.5507H154.697L158.648 45.5625ZM176.808 52.8236H188.02V61.8999L196.883 52.8236H211.619V63.1812H199.553L188.875 74.0728V106H176.808V52.8236ZM215.887 95.4288V63.5016L226.459 52.8236H255.396L266.181 63.5016V83.3626H227.954V91.905L232.011 95.9627H250.271L254.115 92.0118V88.8084H266.074V95.6423L255.716 106H226.352L215.887 95.4288ZM254.115 74.4999V67.1321L249.95 62.8609H232.118L227.954 67.1321V74.4999H254.115Z" fill="#FA58B6"/>
<path d="M297.407 93.9339V43.3201L309.473 31.254H344.497L356.349 43.1066V52.9303H343.963V47.4846L338.304 41.932H315.88L309.793 47.9117V89.3423L315.88 95.322H338.304L343.963 89.7694V84.3237H356.349V94.1474L344.497 106H309.473L297.407 93.9339ZM424.417 81.8677V106H412.031V84.8576L404.343 76.4219H379.997V106H367.61V31.254H413.099L423.99 42.2523V65.21L416.195 73.005L424.417 81.8677ZM379.997 66.1711H407.546L411.817 61.8999V45.9896L407.546 41.7184H379.997V66.1711ZM438.832 31.254H490.941V41.8252H451.218V63.1812H487.844V73.6457H451.218V95.4288H490.941V106H438.832V31.254ZM523.365 31.254H535.111L562.126 106H549.526L543.119 88.2745H515.25L508.843 106H496.243L523.365 31.254ZM540.236 77.9169L529.238 46.31H529.024L518.24 77.9169H540.236ZM568.553 93.5067V31.254H580.939V89.3423L587.026 95.322H609.023L615.109 89.3423V31.254H627.495V93.5067L615.002 106H581.046L568.553 93.5067ZM642.486 31.254H653.804L689.042 85.605H689.255V31.254H701.108V106H689.789L654.552 51.7558H654.338V106H642.486V31.254ZM716.639 31.254H729.026V106H716.639V31.254ZM738.596 31.254H751.41L771.164 91.2644H771.377L791.132 31.254H803.945L777.464 106H765.077L738.596 31.254Z" fill="white"/>
</svg>
